<mxfile host="app.diagrams.net" modified="2023-06-04T13:01:06.244Z" agent="Mozilla/5.0 (Windows NT 10.0; Win64; x64; rv:109.0) Gecko/20100101 Firefox/112.0" etag="nt7Uxqs1HfUN_ixDxtco" version="21.2.3" type="device">
  <diagram name="Page-1" id="kOkBuWeFXqGAMPy6C13c">
    <mxGraphModel dx="1050" dy="530" grid="1" gridSize="10" guides="1" tooltips="1" connect="1" arrows="1" fold="1" page="1" pageScale="1" pageWidth="850" pageHeight="1100" math="0" shadow="0">
      <root>
        <mxCell id="0" />
        <mxCell id="1" parent="0" />
        <mxCell id="UB7KHBUbHC8-i5v826rL-1" value="" style="rounded=1;whiteSpace=wrap;html=1;" vertex="1" parent="1">
          <mxGeometry x="200" y="230" width="80" height="60" as="geometry" />
        </mxCell>
        <mxCell id="UB7KHBUbHC8-i5v826rL-2" value="" style="rounded=1;whiteSpace=wrap;html=1;" vertex="1" parent="1">
          <mxGeometry x="320" y="230" width="80" height="60" as="geometry" />
        </mxCell>
        <mxCell id="UB7KHBUbHC8-i5v826rL-3" value="" style="rounded=1;whiteSpace=wrap;html=1;" vertex="1" parent="1">
          <mxGeometry x="480" y="230" width="80" height="60" as="geometry" />
        </mxCell>
        <mxCell id="UB7KHBUbHC8-i5v826rL-4" value="" style="rounded=1;whiteSpace=wrap;html=1;" vertex="1" parent="1">
          <mxGeometry x="600" y="230" width="80" height="60" as="geometry" />
        </mxCell>
        <mxCell id="UB7KHBUbHC8-i5v826rL-5" value="" style="endArrow=none;dashed=1;html=1;rounded=0;" edge="1" parent="1">
          <mxGeometry width="50" height="50" relative="1" as="geometry">
            <mxPoint x="160" y="360" as="sourcePoint" />
            <mxPoint x="160" y="160" as="targetPoint" />
          </mxGeometry>
        </mxCell>
        <mxCell id="UB7KHBUbHC8-i5v826rL-7" value="" style="endArrow=none;dashed=1;html=1;rounded=0;" edge="1" parent="1">
          <mxGeometry width="50" height="50" relative="1" as="geometry">
            <mxPoint x="720" y="360" as="sourcePoint" />
            <mxPoint x="720" y="160" as="targetPoint" />
          </mxGeometry>
        </mxCell>
        <mxCell id="UB7KHBUbHC8-i5v826rL-8" value="" style="endArrow=none;dashed=1;html=1;dashPattern=1 3;strokeWidth=2;rounded=0;" edge="1" parent="1">
          <mxGeometry width="50" height="50" relative="1" as="geometry">
            <mxPoint x="425" y="259.5" as="sourcePoint" />
            <mxPoint x="455" y="259.5" as="targetPoint" />
          </mxGeometry>
        </mxCell>
        <mxCell id="UB7KHBUbHC8-i5v826rL-9" value="&lt;font style=&quot;font-size: 14px;&quot;&gt;Epoch&lt;/font&gt;" style="endArrow=classic;startArrow=classic;html=1;rounded=0;" edge="1" parent="1">
          <mxGeometry width="50" height="50" relative="1" as="geometry">
            <mxPoint x="160" y="340" as="sourcePoint" />
            <mxPoint x="720" y="340" as="targetPoint" />
          </mxGeometry>
        </mxCell>
        <mxCell id="UB7KHBUbHC8-i5v826rL-12" value="Slot" style="endArrow=classic;startArrow=classic;html=1;rounded=0;fontSize=14;" edge="1" parent="1">
          <mxGeometry width="50" height="50" relative="1" as="geometry">
            <mxPoint x="200" y="310" as="sourcePoint" />
            <mxPoint x="280" y="310" as="targetPoint" />
          </mxGeometry>
        </mxCell>
        <mxCell id="UB7KHBUbHC8-i5v826rL-13" value="&lt;font style=&quot;font-size: 14px;&quot;&gt;Finalized&lt;br&gt;Epoch&lt;br&gt;&lt;/font&gt;" style="rounded=1;whiteSpace=wrap;html=1;fillStyle=auto;shadow=1;glass=0;strokeWidth=3;" vertex="1" parent="1">
          <mxGeometry x="40" y="230" width="80" height="60" as="geometry" />
        </mxCell>
        <mxCell id="UB7KHBUbHC8-i5v826rL-14" value="" style="rounded=1;whiteSpace=wrap;html=1;" vertex="1" parent="1">
          <mxGeometry x="760" y="230" width="80" height="60" as="geometry" />
        </mxCell>
        <mxCell id="UB7KHBUbHC8-i5v826rL-28" style="edgeStyle=orthogonalEdgeStyle;rounded=0;orthogonalLoop=1;jettySize=auto;html=1;curved=1;fillColor=#1ba1e2;strokeColor=#00A0FF;strokeWidth=2;" edge="1" parent="1" source="UB7KHBUbHC8-i5v826rL-15" target="UB7KHBUbHC8-i5v826rL-2">
          <mxGeometry relative="1" as="geometry">
            <Array as="points">
              <mxPoint x="215" y="180" />
              <mxPoint x="360" y="180" />
            </Array>
          </mxGeometry>
        </mxCell>
        <mxCell id="UB7KHBUbHC8-i5v826rL-15" value="" style="shape=umlActor;verticalLabelPosition=bottom;verticalAlign=top;html=1;outlineConnect=0;" vertex="1" parent="1">
          <mxGeometry x="200" y="70" width="30" height="50" as="geometry" />
        </mxCell>
        <mxCell id="UB7KHBUbHC8-i5v826rL-30" style="edgeStyle=orthogonalEdgeStyle;rounded=0;orthogonalLoop=1;jettySize=auto;html=1;fillColor=#6a00ff;strokeColor=#6F00FF;curved=1;strokeWidth=2;" edge="1" parent="1" source="UB7KHBUbHC8-i5v826rL-16" target="UB7KHBUbHC8-i5v826rL-1">
          <mxGeometry relative="1" as="geometry" />
        </mxCell>
        <mxCell id="UB7KHBUbHC8-i5v826rL-16" value="" style="shape=umlActor;verticalLabelPosition=bottom;verticalAlign=top;html=1;outlineConnect=0;" vertex="1" parent="1">
          <mxGeometry x="250" y="70" width="30" height="50" as="geometry" />
        </mxCell>
        <mxCell id="UB7KHBUbHC8-i5v826rL-32" style="edgeStyle=orthogonalEdgeStyle;rounded=0;orthogonalLoop=1;jettySize=auto;html=1;strokeWidth=2;curved=1;fillColor=#60a917;strokeColor=#61FF00;" edge="1" parent="1" source="UB7KHBUbHC8-i5v826rL-17">
          <mxGeometry relative="1" as="geometry">
            <mxPoint x="440" y="230" as="targetPoint" />
            <Array as="points">
              <mxPoint x="315" y="170" />
              <mxPoint x="441" y="170" />
            </Array>
          </mxGeometry>
        </mxCell>
        <mxCell id="UB7KHBUbHC8-i5v826rL-17" value="" style="shape=umlActor;verticalLabelPosition=bottom;verticalAlign=top;html=1;outlineConnect=0;" vertex="1" parent="1">
          <mxGeometry x="300" y="70" width="30" height="50" as="geometry" />
        </mxCell>
        <mxCell id="UB7KHBUbHC8-i5v826rL-31" style="edgeStyle=orthogonalEdgeStyle;rounded=0;orthogonalLoop=1;jettySize=auto;html=1;entryX=0.5;entryY=0;entryDx=0;entryDy=0;fillColor=#6a00ff;strokeColor=#6F00FF;curved=1;strokeWidth=2;" edge="1" parent="1" source="UB7KHBUbHC8-i5v826rL-18" target="UB7KHBUbHC8-i5v826rL-1">
          <mxGeometry relative="1" as="geometry">
            <Array as="points">
              <mxPoint x="365" y="170" />
              <mxPoint x="240" y="170" />
            </Array>
          </mxGeometry>
        </mxCell>
        <mxCell id="UB7KHBUbHC8-i5v826rL-18" value="" style="shape=umlActor;verticalLabelPosition=bottom;verticalAlign=top;html=1;outlineConnect=0;" vertex="1" parent="1">
          <mxGeometry x="350" y="70" width="30" height="50" as="geometry" />
        </mxCell>
        <mxCell id="UB7KHBUbHC8-i5v826rL-29" style="edgeStyle=orthogonalEdgeStyle;rounded=0;orthogonalLoop=1;jettySize=auto;html=1;fillColor=#1ba1e2;strokeColor=#00A0FF;curved=1;strokeWidth=2;" edge="1" parent="1" source="UB7KHBUbHC8-i5v826rL-19" target="UB7KHBUbHC8-i5v826rL-2">
          <mxGeometry relative="1" as="geometry" />
        </mxCell>
        <mxCell id="UB7KHBUbHC8-i5v826rL-19" value="" style="shape=umlActor;verticalLabelPosition=bottom;verticalAlign=top;html=1;outlineConnect=0;" vertex="1" parent="1">
          <mxGeometry x="400" y="70" width="30" height="50" as="geometry" />
        </mxCell>
        <mxCell id="UB7KHBUbHC8-i5v826rL-33" style="edgeStyle=orthogonalEdgeStyle;rounded=0;orthogonalLoop=1;jettySize=auto;html=1;strokeWidth=2;curved=1;fillColor=#60a917;strokeColor=#61FF00;" edge="1" parent="1" source="UB7KHBUbHC8-i5v826rL-20">
          <mxGeometry relative="1" as="geometry">
            <mxPoint x="440" y="230" as="targetPoint" />
            <Array as="points">
              <mxPoint x="465" y="175" />
              <mxPoint x="441" y="175" />
            </Array>
          </mxGeometry>
        </mxCell>
        <mxCell id="UB7KHBUbHC8-i5v826rL-20" value="" style="shape=umlActor;verticalLabelPosition=bottom;verticalAlign=top;html=1;outlineConnect=0;" vertex="1" parent="1">
          <mxGeometry x="450" y="70" width="30" height="50" as="geometry" />
        </mxCell>
        <mxCell id="UB7KHBUbHC8-i5v826rL-34" style="edgeStyle=orthogonalEdgeStyle;rounded=0;orthogonalLoop=1;jettySize=auto;html=1;entryX=0.5;entryY=0;entryDx=0;entryDy=0;strokeWidth=2;curved=1;fillColor=#e3c800;strokeColor=#F5CF00;" edge="1" parent="1" source="UB7KHBUbHC8-i5v826rL-21" target="UB7KHBUbHC8-i5v826rL-3">
          <mxGeometry relative="1" as="geometry">
            <Array as="points">
              <mxPoint x="515" y="180" />
              <mxPoint x="520" y="180" />
            </Array>
          </mxGeometry>
        </mxCell>
        <mxCell id="UB7KHBUbHC8-i5v826rL-21" value="" style="shape=umlActor;verticalLabelPosition=bottom;verticalAlign=top;html=1;outlineConnect=0;" vertex="1" parent="1">
          <mxGeometry x="500" y="70" width="30" height="50" as="geometry" />
        </mxCell>
        <mxCell id="UB7KHBUbHC8-i5v826rL-36" style="edgeStyle=orthogonalEdgeStyle;rounded=0;orthogonalLoop=1;jettySize=auto;html=1;entryX=0.5;entryY=0;entryDx=0;entryDy=0;strokeWidth=2;curved=1;fillColor=#e51400;strokeColor=#FF0000;" edge="1" parent="1" source="UB7KHBUbHC8-i5v826rL-22" target="UB7KHBUbHC8-i5v826rL-4">
          <mxGeometry relative="1" as="geometry">
            <Array as="points">
              <mxPoint x="565" y="170" />
              <mxPoint x="640" y="170" />
            </Array>
          </mxGeometry>
        </mxCell>
        <mxCell id="UB7KHBUbHC8-i5v826rL-22" value="" style="shape=umlActor;verticalLabelPosition=bottom;verticalAlign=top;html=1;outlineConnect=0;" vertex="1" parent="1">
          <mxGeometry x="550" y="70" width="30" height="50" as="geometry" />
        </mxCell>
        <mxCell id="UB7KHBUbHC8-i5v826rL-35" style="edgeStyle=orthogonalEdgeStyle;rounded=0;orthogonalLoop=1;jettySize=auto;html=1;entryX=0.5;entryY=0;entryDx=0;entryDy=0;curved=1;strokeWidth=2;fillColor=#e3c800;strokeColor=#FFD800;" edge="1" parent="1" source="UB7KHBUbHC8-i5v826rL-23" target="UB7KHBUbHC8-i5v826rL-3">
          <mxGeometry relative="1" as="geometry">
            <Array as="points">
              <mxPoint x="615" y="170" />
              <mxPoint x="520" y="170" />
            </Array>
          </mxGeometry>
        </mxCell>
        <mxCell id="UB7KHBUbHC8-i5v826rL-23" value="" style="shape=umlActor;verticalLabelPosition=bottom;verticalAlign=top;html=1;outlineConnect=0;" vertex="1" parent="1">
          <mxGeometry x="600" y="70" width="30" height="50" as="geometry" />
        </mxCell>
        <mxCell id="UB7KHBUbHC8-i5v826rL-37" style="edgeStyle=orthogonalEdgeStyle;rounded=0;orthogonalLoop=1;jettySize=auto;html=1;entryX=0.5;entryY=0;entryDx=0;entryDy=0;curved=1;strokeWidth=2;fillColor=#e51400;strokeColor=#FF0000;" edge="1" parent="1" source="UB7KHBUbHC8-i5v826rL-26" target="UB7KHBUbHC8-i5v826rL-4">
          <mxGeometry relative="1" as="geometry" />
        </mxCell>
        <mxCell id="UB7KHBUbHC8-i5v826rL-26" value="" style="shape=umlActor;verticalLabelPosition=bottom;verticalAlign=top;html=1;outlineConnect=0;" vertex="1" parent="1">
          <mxGeometry x="650" y="70" width="30" height="50" as="geometry" />
        </mxCell>
        <mxCell id="UB7KHBUbHC8-i5v826rL-42" style="edgeStyle=orthogonalEdgeStyle;rounded=0;orthogonalLoop=1;jettySize=auto;html=1;exitX=0;exitY=0;exitDx=0;exitDy=0;entryX=1;entryY=0.5;entryDx=0;entryDy=0;curved=1;dashed=1;" edge="1" parent="1" source="UB7KHBUbHC8-i5v826rL-41" target="UB7KHBUbHC8-i5v826rL-43">
          <mxGeometry relative="1" as="geometry">
            <mxPoint x="120" y="193" as="targetPoint" />
          </mxGeometry>
        </mxCell>
        <mxCell id="UB7KHBUbHC8-i5v826rL-41" value="" style="ellipse;whiteSpace=wrap;html=1;fillColor=none;dashed=1;" vertex="1" parent="1">
          <mxGeometry x="227" y="190" width="33" height="20" as="geometry" />
        </mxCell>
        <mxCell id="UB7KHBUbHC8-i5v826rL-43" value="&lt;font style=&quot;font-size: 14px;&quot;&gt;Commitee&lt;/font&gt;" style="text;html=1;strokeColor=none;fillColor=none;align=center;verticalAlign=middle;whiteSpace=wrap;rounded=0;perimeterSpacing=5;" vertex="1" parent="1">
          <mxGeometry x="50" y="160" width="60" height="30" as="geometry" />
        </mxCell>
        <mxCell id="UB7KHBUbHC8-i5v826rL-46" style="edgeStyle=orthogonalEdgeStyle;orthogonalLoop=1;jettySize=auto;html=1;dashed=1;curved=1;" edge="1" parent="1" source="UB7KHBUbHC8-i5v826rL-44" target="UB7KHBUbHC8-i5v826rL-45">
          <mxGeometry relative="1" as="geometry" />
        </mxCell>
        <mxCell id="UB7KHBUbHC8-i5v826rL-44" value="" style="rounded=1;whiteSpace=wrap;html=1;fillColor=none;strokeWidth=1;dashed=1;" vertex="1" parent="1">
          <mxGeometry x="170" y="60" width="540" height="70" as="geometry" />
        </mxCell>
        <mxCell id="UB7KHBUbHC8-i5v826rL-45" value="&lt;font style=&quot;font-size: 14px;&quot;&gt;Validators&lt;/font&gt;" style="text;html=1;strokeColor=none;fillColor=none;align=center;verticalAlign=middle;whiteSpace=wrap;rounded=0;perimeterSpacing=5;" vertex="1" parent="1">
          <mxGeometry x="50" y="100" width="60" height="30" as="geometry" />
        </mxCell>
      </root>
    </mxGraphModel>
  </diagram>
</mxfile>
